<svg width="16" height="16" viewBox="0 0 16 16" fill="none" xmlns="http://www.w3.org/2000/svg">
<path fill-rule="evenodd" clip-rule="evenodd" d="M3.99998 2.66663H12C12.7072 2.66663 13.3855 2.94758 13.8856 3.44767C14.3857 3.94777 14.6666 4.62605 14.6666 5.33329V12C14.6666 12.7072 14.3857 13.3855 13.8856 13.8856C13.3855 14.3857 12.7072 14.6666 12 14.6666H3.99998C3.29274 14.6666 2.61446 14.3857 2.11436 13.8856C1.61426 13.3855 1.33331 12.7072 1.33331 12V5.33329C1.33331 4.62605 1.61426 3.94777 2.11436 3.44767C2.61446 2.94758 3.29274 2.66663 3.99998 2.66663ZM3.99998 3.99996C3.64636 3.99996 3.30722 4.14044 3.05717 4.39048C2.80712 4.64053 2.66665 4.97967 2.66665 5.33329V12C2.66665 12.3536 2.80712 12.6927 3.05717 12.9428C3.30722 13.1928 3.64636 13.3333 3.99998 13.3333H12C12.3536 13.3333 12.6927 13.1928 12.9428 12.9428C13.1928 12.6927 13.3333 12.3536 13.3333 12V5.33329C13.3333 4.97967 13.1928 4.64053 12.9428 4.39048C12.6927 4.14044 12.3536 3.99996 12 3.99996H3.99998Z" fill="currentColor"/>
<path fill-rule="evenodd" clip-rule="evenodd" d="M2 6.66665C2 6.48984 2.07024 6.32027 2.19526 6.19524C2.32029 6.07022 2.48986 5.99998 2.66667 5.99998H13.3333C13.5101 5.99998 13.6797 6.07022 13.8047 6.19524C13.9298 6.32027 14 6.48984 14 6.66665C14 6.84346 13.9298 7.01303 13.8047 7.13805C13.6797 7.26308 13.5101 7.33331 13.3333 7.33331H2.66667C2.48986 7.33331 2.32029 7.26308 2.19526 7.13805C2.07024 7.01303 2 6.84346 2 6.66665ZM5.33333 1.33331C5.51014 1.33331 5.67971 1.40355 5.80474 1.52858C5.92976 1.6536 6 1.82317 6 1.99998V4.66665C6 4.84346 5.92976 5.01303 5.80474 5.13805C5.67971 5.26308 5.51014 5.33331 5.33333 5.33331C5.15652 5.33331 4.98695 5.26308 4.86193 5.13805C4.7369 5.01303 4.66667 4.84346 4.66667 4.66665V1.99998C4.66667 1.82317 4.7369 1.6536 4.86193 1.52858C4.98695 1.40355 5.15652 1.33331 5.33333 1.33331ZM10.6667 1.33331C10.8435 1.33331 11.013 1.40355 11.1381 1.52858C11.2631 1.6536 11.3333 1.82317 11.3333 1.99998V4.66665C11.3333 4.84346 11.2631 5.01303 11.1381 5.13805C11.013 5.26308 10.8435 5.33331 10.6667 5.33331C10.4899 5.33331 10.3203 5.26308 10.1953 5.13805C10.0702 5.01303 10 4.84346 10 4.66665V1.99998C10 1.82317 10.0702 1.6536 10.1953 1.52858C10.3203 1.40355 10.4899 1.33331 10.6667 1.33331Z" fill="currentColor"/>
<path d="M5.33333 8.66667C5.33333 8.84348 5.2631 9.01305 5.13807 9.13807C5.01305 9.2631 4.84348 9.33333 4.66667 9.33333C4.48986 9.33333 4.32029 9.2631 4.19526 9.13807C4.07024 9.01305 4 8.84348 4 8.66667C4 8.48986 4.07024 8.32029 4.19526 8.19526C4.32029 8.07024 4.48986 8 4.66667 8C4.84348 8 5.01305 8.07024 5.13807 8.19526C5.2631 8.32029 5.33333 8.48986 5.33333 8.66667ZM5.33333 11.3333C5.33333 11.5101 5.2631 11.6797 5.13807 11.8047C5.01305 11.9298 4.84348 12 4.66667 12C4.48986 12 4.32029 11.9298 4.19526 11.8047C4.07024 11.6797 4 11.5101 4 11.3333C4 11.1565 4.07024 10.987 4.19526 10.8619C4.32029 10.7369 4.48986 10.6667 4.66667 10.6667C4.84348 10.6667 5.01305 10.7369 5.13807 10.8619C5.2631 10.987 5.33333 11.1565 5.33333 11.3333ZM8.66667 8.66667C8.66667 8.84348 8.59643 9.01305 8.4714 9.13807C8.34638 9.2631 8.17681 9.33333 8 9.33333C7.82319 9.33333 7.65362 9.2631 7.5286 9.13807C7.40357 9.01305 7.33333 8.84348 7.33333 8.66667C7.33333 8.48986 7.40357 8.32029 7.5286 8.19526C7.65362 8.07024 7.82319 8 8 8C8.17681 8 8.34638 8.07024 8.4714 8.19526C8.59643 8.32029 8.66667 8.48986 8.66667 8.66667ZM8.66667 11.3333C8.66667 11.5101 8.59643 11.6797 8.4714 11.8047C8.34638 11.9298 8.17681 12 8 12C7.82319 12 7.65362 11.9298 7.5286 11.8047C7.40357 11.6797 7.33333 11.5101 7.33333 11.3333C7.33333 11.1565 7.40357 10.987 7.5286 10.8619C7.65362 10.7369 7.82319 10.6667 8 10.6667C8.17681 10.6667 8.34638 10.7369 8.4714 10.8619C8.59643 10.987 8.66667 11.1565 8.66667 11.3333ZM12 8.66667C12 8.84348 11.9298 9.01305 11.8047 9.13807C11.6797 9.2631 11.5101 9.33333 11.3333 9.33333C11.1565 9.33333 10.987 9.2631 10.8619 9.13807C10.7369 9.01305 10.6667 8.84348 10.6667 8.66667C10.6667 8.48986 10.7369 8.32029 10.8619 8.19526C10.987 8.07024 11.1565 8 11.3333 8C11.5101 8 11.6797 8.07024 11.8047 8.19526C11.9298 8.32029 12 8.48986 12 8.66667ZM12 11.3333C12 11.5101 11.9298 11.6797 11.8047 11.8047C11.6797 11.9298 11.5101 12 11.3333 12C11.1565 12 10.987 11.9298 10.8619 11.8047C10.7369 11.6797 10.6667 11.5101 10.6667 11.3333C10.6667 11.1565 10.7369 10.987 10.8619 10.8619C10.987 10.7369 11.1565 10.6667 11.3333 10.6667C11.5101 10.6667 11.6797 10.7369 11.8047 10.8619C11.9298 10.987 12 11.1565 12 11.3333Z" fill="currentColor"/>
</svg>
