<svg width="16" height="16" viewBox="0 0 16 16" fill="none" xmlns="http://www.w3.org/2000/svg">
<path d="M2.66669 9.37999C3.34335 9.37999 4.28735 9.17866 4.88002 9.61333L6.05469 10.4733C6.49135 10.7933 6.96402 10.688 7.45135 10.612C8.09269 10.5113 8.66669 11.0587 8.66669 11.7707C8.66669 11.9653 7.28469 12.4607 7.08535 12.5547C6.89343 12.6454 6.68037 12.6821 6.46915 12.6607C6.25792 12.6393 6.05654 12.5607 5.88669 12.4333L4.56135 11.462" stroke="black" stroke-linecap="round" stroke-linejoin="round"/>
<path d="M8.66669 11.3333L11.394 10.0733C11.6345 9.99021 11.894 9.9784 12.1411 10.0393C12.3881 10.1002 12.6123 10.2313 12.7867 10.4166L13.2334 10.884C13.3934 11.0506 13.356 11.332 13.158 11.4466L7.92202 14.4873C7.76734 14.578 7.59565 14.6358 7.41765 14.6573C7.23965 14.6787 7.05914 14.6633 6.88735 14.612L2.66669 13.3513M8.00135 7.99998C8.00135 7.99998 9.40135 6.50731 9.40135 4.66665C9.40135 2.82598 8.00135 1.33331 8.00135 1.33331C8.00135 1.33331 6.60135 2.82598 6.60135 4.66665C6.60135 6.50731 8.00135 7.99998 8.00135 7.99998ZM8.00135 7.99998C8.00135 7.99998 10.046 7.95465 11.3347 6.63998C12.6234 5.32465 12.668 3.23798 12.668 3.23798C12.668 3.23798 11.8214 3.25665 10.8747 3.62065M8.00135 7.99998C8.00135 7.99998 5.95669 7.95465 4.66802 6.63998C3.37935 5.32465 3.33469 3.23798 3.33469 3.23798C3.33469 3.23798 4.18135 3.25665 5.12802 3.62065" stroke="black" stroke-linecap="round" stroke-linejoin="round"/>
</svg>
