<svg width="16" height="16" viewBox="0 0 16 16" fill="none" xmlns="http://www.w3.org/2000/svg">
<path d="M4.00002 12.6666H6.00002V9.33331C6.00002 9.14442 6.06402 8.9862 6.19202 8.85865C6.32002 8.73109 6.47824 8.66709 6.66669 8.66665H9.33335C9.52224 8.66665 9.68069 8.73065 9.80869 8.85865C9.93669 8.98665 10.0005 9.14487 10 9.33331V12.6666H12V6.66665L8.00002 3.66665L4.00002 6.66665V12.6666ZM2.66669 12.6666V6.66665C2.66669 6.45554 2.71402 6.25554 2.80869 6.06665C2.90335 5.87776 3.0338 5.7222 3.20002 5.59998L7.20002 2.59998C7.43335 2.4222 7.70002 2.33331 8.00002 2.33331C8.30002 2.33331 8.56669 2.4222 8.80002 2.59998L12.8 5.59998C12.9667 5.7222 13.0974 5.87776 13.192 6.06665C13.2867 6.25554 13.3338 6.45554 13.3334 6.66665V12.6666C13.3334 13.0333 13.2027 13.3473 12.9414 13.6086C12.68 13.87 12.3662 14.0004 12 14H9.33335C9.14446 14 8.98624 13.936 8.85869 13.808C8.73113 13.68 8.66713 13.5218 8.66669 13.3333V9.99998H7.33335V13.3333C7.33335 13.5222 7.26935 13.6806 7.14135 13.8086C7.01335 13.9366 6.85513 14.0004 6.66669 14H4.00002C3.63335 14 3.31958 13.8695 3.05869 13.6086C2.7978 13.3478 2.66713 13.0338 2.66669 12.6666Z" fill="currentColor"/>
</svg>
