<svg width="34" height="34" viewBox="0 0 34 34" fill="none" xmlns="http://www.w3.org/2000/svg">
<path fill-rule="evenodd" clip-rule="evenodd" d="M33.9952 12.2327C33.9345 8.40529 31.6297 4.67986 28.1375 3.14986C24.8152 1.7 20.8056 2.36786 17.0777 5.967C13.5927 2.601 9.85274 1.78743 6.63731 2.907C3.20574 4.10429 0.801454 7.378 0.269597 10.9091C0.240097 11.1064 0.249737 11.3075 0.297968 11.5011C0.3462 11.6946 0.432077 11.8767 0.550697 12.0371C0.790262 12.3609 1.14865 12.5763 1.54703 12.6359C1.9454 12.6954 2.35113 12.5943 2.67495 12.3548C2.99877 12.1152 3.21416 11.7568 3.27374 11.3584C3.65503 8.79629 5.39874 6.55472 7.63545 5.77272C9.73617 5.04414 12.7185 5.46672 15.9315 9.17029C16.0739 9.33444 16.25 9.46608 16.4478 9.5563C16.6455 9.64651 16.8604 9.6932 17.0777 9.6932C17.2951 9.6932 17.5099 9.64651 17.7077 9.5563C17.9055 9.46608 18.0815 9.33444 18.224 9.17029C21.624 5.25057 24.7715 4.99314 26.9183 5.93057C29.2376 6.94572 30.9109 9.53943 30.9595 12.2691C30.9546 16.5191 28.2127 20.587 24.8492 23.7029C23.3626 25.0866 21.7271 26.301 19.9726 27.3239C19.3531 27.685 18.7078 28 18.0419 28.2661C17.4736 28.4847 17.1652 28.5309 17.0777 28.5309C16.949 28.5309 16.5095 28.4483 15.7226 28.1059C14.816 27.6943 13.9424 27.2136 13.1095 26.6681C10.8603 25.2064 8.8335 23.4282 7.09145 21.3884C6.83221 21.0802 6.46114 20.8876 6.05989 20.853C5.65865 20.8184 5.26008 20.9446 4.95188 21.2039C4.64368 21.4631 4.45109 21.8342 4.41648 22.2354C4.38186 22.6367 4.50806 23.0352 4.76731 23.3434C6.70332 25.6145 8.95869 27.5925 11.4629 29.2157C12.5533 29.92 13.6 30.4907 14.5156 30.889C15.3802 31.263 16.3006 31.5617 17.0802 31.5617C17.7286 31.5617 18.4547 31.3577 19.1299 31.1003C19.9416 30.7807 20.7276 30.3991 21.4807 29.9589C23.4359 28.8201 25.2588 27.468 26.9159 25.9274C30.5126 22.593 33.9976 17.7674 33.9976 12.2546L33.9952 12.2327ZM12.7355 11.3584C12.5859 11.0962 12.3735 10.8753 12.1174 10.7155C11.8612 10.5557 11.5694 10.4621 11.2681 10.4431C10.9669 10.4241 10.6656 10.4802 10.3914 10.6065C10.1172 10.7328 9.87868 10.9253 9.69731 11.1666L6.69074 15.181H1.82631C1.34324 15.181 0.879951 15.3729 0.538367 15.7145C0.196783 16.0561 0.00488281 16.5194 0.00488281 17.0024C0.00488281 17.4855 0.196783 17.9488 0.538367 18.2904C0.879951 18.632 1.34324 18.8239 1.82631 18.8239H7.60145C7.88422 18.8239 8.16311 18.758 8.41602 18.6316C8.66894 18.5051 8.88894 18.3215 9.0586 18.0953L10.948 15.572L14.3116 21.4637C14.4614 21.7258 14.674 21.9465 14.9302 22.106C15.1864 22.2656 15.4783 22.359 15.7796 22.3777C16.0809 22.3965 16.3821 22.3401 16.6561 22.2137C16.9302 22.0872 17.1686 21.8946 17.3497 21.6531L20.3587 17.6387H22.9986C23.4817 17.6387 23.945 17.4468 24.2865 17.1052C24.6281 16.7636 24.82 16.3004 24.82 15.8173C24.82 15.3342 24.6281 14.8709 24.2865 14.5293C23.945 14.1878 23.4817 13.9959 22.9986 13.9959H19.4456C19.1628 13.9959 18.8839 14.0617 18.631 14.1882C18.3781 14.3146 18.1581 14.4982 17.9885 14.7244L16.1015 17.2477L12.7355 11.3584Z" fill="currentColor"/>
</svg>
